<svg xmlns="http://www.w3.org/2000/svg" width="92" height="92" id="play"><path d="M15.283 68.898c-4.089 0-6.868-3.285-6.868-8.174V11.275c0-4.889 2.779-8.174 6.87-8.174 1.563 0 3.213.485 4.87 1.441l38.924 24.77c2.877 1.659 4.506 4.052 4.506 6.692 0 2.638-1.62 5.027-4.566 6.729l-38.793 24.68c-1.731 1.001-3.379 1.485-4.943 1.485zm.002-61.796c-2.563 0-2.87 2.919-2.87 4.174v49.449c0 1.255.308 4.174 2.868 4.174.84 0 1.843-.313 2.87-.905l38.787-24.68c1.706-.987 2.646-2.177 2.646-3.309 0-1.135-.937-2.327-2.574-3.272L18.08 7.963c-.953-.548-1.954-.861-2.795-.861z"></path><path d="M35.163 48.955a1.001 1.001 0 0 1-.535-1.847l.54-.34a1 1 0 0 1 1.066 1.693l-.54.34a.993.993 0 0 1-.531.154zM20.514 58.169a.999.999 0 0 1-.534-1.847l11.223-7.06a1 1 0 0 1 1.065 1.693l-11.223 7.06a.996.996 0 0 1-.531.154z"></path></svg>